<?xml version="1.0" encoding="UTF-8"?><svg xmlns="http://www.w3.org/2000/svg" viewBox="0 0 36 36">
 <g id="change1_1"><path d="m10 5c-1 1 0 2 0 3s2 0 2 0 1-1 2 1 4 1 3-1-4-1-4-3-3 0-3 0z" fill="#FFDC5D"/></g>
 <g id="change2_1"><path d="m15 3c0 1 0 4-1 4s-1-1-2-2 3-2 3-2z" fill="#FFAC33"/></g>
 <g id="change3_1"><path d="m19 16s-3 2-3 3 4 4 5 5 3 1 2-1-4-7-4-7z" fill="#F9CA55"/></g>
 <g id="change4_1"><path d="m20.634 23.021s1.173 0.789 1.962-0.385c0.789-1.174 1.365 1.771 1.365 1.771s-2.559 2.539-4.521 2.924c-1.962 0.385-1.173-0.789-0.385-1.962l1.579-2.348z" fill="#2A6797"/></g>
 <g id="change5_1"><path d="m7 22c-3.866 0-7 3.134-7 7s3.134 7 7 7 7-3.134 7-7-3.133-7-7-7zm0 12c-2.761 0-5-2.238-5-5s2.239-5 5-5 5 2.238 5 5-2.238 5-5 5zm22-12c-3.865 0-7 3.134-7 7s3.135 7 7 7c3.867 0 7-3.134 7-7s-3.133-7-7-7zm0 12c-2.761 0-5-2.238-5-5s2.239-5 5-5c2.762 0 5 2.238 5 5s-2.238 5-5 5z" fill="#292F33"/></g>
 <g fill="#AAB8C2" id="change6_1">
  <path d="m22 20c0-0.553-0.484-1-1.083-1h-10.834c-0.598 0-1.083 0.447-1.083 1s0.485 1 1.083 1h10.833c0.6 0 1.084-0.447 1.084-1zm8 9c0-0.553-0.447-1-1-1h-11c-0.552 0-1 0.447-1 1s0.448 1 1 1h11c0.553 0 1-0.447 1-1z" fill="inherit"/>
  <path d="m21.224 17l-4.166 11.664c-0.185 0.519 0.086 1.092 0.606 1.277 0.111 0.04 0.224 0.059 0.336 0.059 0.411 0 0.796-0.255 0.942-0.664l4.406-12.336h-2.124z" fill="inherit"/>
  <path d="m29.001 30c-0.33 0-0.654-0.164-0.845-0.463l-7-11c-0.297-0.466-0.159-1.084 0.307-1.381 0.467-0.297 1.084-0.159 1.381 0.307l7 11c0.297 0.466 0.159 1.084-0.307 1.381-0.167 0.105-0.352 0.156-0.536 0.156zm-10.001-4.266l-8.387-6.524c-0.435-0.34-1.063-0.26-1.403 0.176-0.339 0.437-0.26 1.064 0.176 1.403l9 7c0.182 0.143 0.398 0.211 0.613 0.211h0.001v-2.266z" fill="inherit"/>
  <path d="m7 30c-0.104 0-0.211-0.017-0.316-0.052-0.524-0.174-0.807-0.74-0.632-1.265l2.772-8.316-3.423-2.568c-0.442-0.331-0.531-0.958-0.2-1.4 0.331-0.44 0.957-0.531 1.4-0.2l4.577 3.433-3.228 9.684c-0.141 0.419-0.532 0.684-0.95 0.684z" fill="inherit"/>
 </g>
 <g id="change5_2"><path d="m26.383 19c-0.03 0-0.059-0.002-0.089-0.006l-5.672-0.708c-0.372-0.046-0.644-0.374-0.62-0.748 0.023-0.374 0.333-0.665 0.707-0.665 0.041 0 4.067-0.018 5.989-1.299 0.25-0.167 0.582-0.157 0.824 0.026 0.239 0.185 0.337 0.501 0.241 0.788l-0.709 2.127c-0.096 0.293-0.369 0.485-0.671 0.485zm-15.383-1h-5c-0.552 0-1-0.448-1-1s0.448-1 1-1h5c0.552 0 1 0.448 1 1s-0.448 1-1 1z" fill="#292F33"/></g>
 <g id="change4_2"><path d="m21.999 13l-3.999 3 3 3z" fill="#2A6797"/></g>
 <g id="change1_2"><path d="m19.999 17s-2 3-2 4 1 4 1 7 2 3 2 2 1.581-5.419 0-7c-1-1 2-4 2-4l-3-2zm-4.314-3.703l-2.75-0.784c-0.447 1.956-3.023 4.486-3.935 4.486-1 0-2 0-2 1s0 1 2 1 4-2 5-3c0.65-0.65 1.309-1.757 1.685-2.702z" fill="#FFDC5D"/></g>
 <g id="change7_1"><path d="m21.999 13l-3 4 4 3s5-5 5-7-3-3-3-3l-3 3z" fill="#357BAA"/></g>
 <g id="change8_1"><path d="m20.999 6.999c-3-1-5.585-0.414-7 1-1 1-1 2-1 4 0 0.176-0.03 0.362-0.073 0.55l2.744 0.784c0.202-0.509 0.33-0.984 0.33-1.334 0-1 1-1 2 0s2 2 3 2 6-4 6-4c-3.001-1-4.103-2.368-6.001-3zm-1.999 22.001s1 1 2 0 1 2 1 2-3 2-5 2-1-1 0-2l2-2zm-8-27c2-1 6 0 4 2-1 1-7 2-7 2 0-1 1-3 3-4z" fill="#4289C1"/></g>
</svg>