<svg xmlns="http://www.w3.org/2000/svg" version="1.1" viewBox="0 0 3660.09 3316.69" style="fill: rgb(0, 0, 0);">
 <g id="__id124_svins2fzoa" style="fill: rgb(246, 95, 116);">
  <path d="m684.72 2976c-39.72 106.2-157.98 160.1-264.15 120.3-106.16-39.7-160.03-158-120.31-264.1 39.71-106.2 157.97-160.1 264.14-120.3 106.17 39.7 160.03 157.9 120.32 264.1" style="fill: inherit;"></path>
  <path d="m212.86 3245.3c-21.27 56.8-84.59 85.7-141.44 64.4-56.846-21.3-85.69-84.6-64.424-141.5 21.266-56.8 84.594-85.6 141.44-64.4 56.85 21.3 85.69 84.6 64.42 141.5" style="fill: inherit;"></path>
  <path d="m2014.2 1727.5l-327.8 208.6v-834.6l655.5 417.3zm-108.8-819c-335 0-606.7 271.6-606.7 606.7s271.7 606.8 606.7 606.8c335.2 0 606.8-271.7 606.8-606.8s-271.6-606.7-606.8-606.7" style="fill: inherit;"></path>
  <path d="m1905.4 2319.6c-444.2 0-804.3-360.1-804.3-804.4 0-444.2 360.1-804.29 804.3-804.29 444.3 0 804.4 360.09 804.4 804.29 0 444.3-360.1 804.4-804.4 804.4zm890.6-1524.6c-56.7-448.33-439.4-795.02-903.1-795.02-463.3 0.0039062-845.7 346.01-902.96 793.7-493.17 24.05-885.65 431.5-885.65 930.6 0 514.7 417.18 931.8 931.81 931.8 41.9 0 83.1-2.8 123.6-8.1h1445c40.4 5.3 81.7 8.1 123.6 8.1 514.6 0 931.8-417.1 931.8-931.8 0-491.8-381.1-894.58-864.1-929.28" style="fill: inherit;"></path>
 </g>
</svg>