<svg xmlns="http://www.w3.org/2000/svg" xmlns:xlink="http://www.w3.org/1999/xlink" version="1.1" x="0px" y="0px" viewBox="0 0 357.25 399.828" enable-background="new 0 0 357.25 399.828" xml:space="preserve" style="fill: rgb(0, 0, 0);">
<g id="__id122_sur4x67ft">
	<g id="__id123_sur4x67ft">
		<path d="M19.399,115.269l-17.383-9.146C36.467,40.665,103.776,0,177.677,0c39.863,0,77.763,10.36,109.597,29.96    c4.808,2.96,9.533,6.171,14.049,9.542l-11.758,15.732c-4.041-3.021-8.279-5.896-12.588-8.552    c-28.735-17.689-63.072-27.04-99.3-27.04C111.087,19.642,50.441,56.283,19.399,115.269z" style="fill: rgb(246, 95, 116);"></path>
		<path d="M357.25,134.384L242.938,76.156l107.757-66L357.25,134.384z M283.119,74.58l52.724,26.855l-3.021-57.294    L283.119,74.58z" style="fill: rgb(246, 95, 116);"></path>
		<path d="M179.573,399.828c-39.873,0-77.768-10.356-109.599-29.955c-4.841-2.979-9.569-6.193-14.055-9.549    l11.771-15.729c4.009,3.005,8.242,5.879,12.582,8.555c28.731,17.688,63.068,27.043,99.301,27.043    c66.584,0,127.232-36.648,158.275-95.632l17.384,9.146C320.776,359.166,253.473,399.828,179.573,399.828z" style="fill: rgb(246, 95, 116);"></path>
		<path d="M6.554,389.671L0,265.453l114.312,58.223L6.554,389.671z M21.404,298.393l3.023,57.295l49.7-30.44    L21.404,298.393z" style="fill: rgb(246, 95, 116);"></path>
	</g>
</g>
</svg>