<svg xmlns="http://www.w3.org/2000/svg" version="1.1" viewBox="0 0 357.7 318" style="fill: rgb(0, 0, 0);">
    <defs>
        <clipPath id="__id119_sjek1kphkw">
        <path d="m0 0h357.7v318h-357.7z"></path>
        </clipPath>
    </defs>
    <g id="__id120_sjek1kphkw">
        <g clip-path="url(#__id119_sjek1kphkw)" id="__id121_sjek1kphkw">
        <path d="m61.301 170.2v4.8l-34 8v-4.8zm-3.699 39.5c-2 0-3.7-1.6-3.7-3.7s1.598-3.7 3.7-3.7c2.101 0 3.699 1.6 3.699 3.7s-1.699 3.7-3.699 3.7zm-43.899 10.4c-2 0-3.703-1.6-3.703-3.7s1.602-3.7 3.703-3.7c2.098 0 3.699 1.6 3.699 3.7s-1.699 3.7-3.699 3.7zm3.598-16.8c-1.899-0.5-4-0.7-6.098-0.3-6.4999 1.3-11.301 7.1-11.203 13.7 0.20312 7.4 6.2031 13.4 13.703 13.4 7.399 0 13.5-5.9 13.598-13.3v-23.5l33.902-8.1v7.6c-1.902-0.5-4-0.7-6.101-0.3-6.5 1.3-11.301 7.1-11.2 13.7 0.2 7.4 6.2 13.4 13.7 13.4 7.398 0 13.5-5.9 13.601-13.3v-42.5c0-3.2-3-5.6-6.203-4.9l-43.898 10.4c-2.301 0.5-3.801 2.5-3.801 4.9zm326.8-116c-2 0-3.7-1.602-3.7-3.699 0-2.102 1.6-3.704 3.7-3.704s3.7 1.602 3.7 3.704c0 2.097-1.7 3.699-3.7 3.699zm-30.3-26.699v-4.801l33.9-8.102v4.801zm-13.6 37.097c-2 0-3.7-1.597-3.7-3.699s1.6-3.699 3.7-3.699 3.7 1.597 3.7 3.699-1.7 3.699-3.7 3.699zm3.6-45.801v29c-1.9-0.5-4-0.699-6.1-0.296-6.5 1.296-11.3 7.097-11.2 13.699 0.2 7.399 6.2 13.399 13.7 13.399 7.4 0 13.5-5.9 13.6-13.302v-23.5l33.9-8.097v7.597c-1.9-0.5-4-0.699-6.1-0.296-6.5 1.296-11.3 7.097-11.2 13.699 0.2 7.398 6.2 13.398 13.7 13.398 7.4 0 13.5-5.898 13.6-13.301v-42.5c0-3.199-3-5.597-6.2-4.898l-43.8 10.5c-2.3 0.5-3.9 2.5-3.9 4.898zm-2.9 221.2c-2.4 0-4.4-2-4.4-4.4s2-4.4 4.4-4.4 4.4 2 4.4 4.4-2 4.4-4.4 4.4zm14.4-46.4l13.9-3.5v6.1l-13.9 3.5zm-10 28.3c-2-0.6-4.1-0.9-6.4-0.6-6.9 0.9-12.2 6.9-12.4 13.8-0.2 8.1 6.3 14.8 14.4 14.8 7.8 0 14.2-6.3 14.4-14v-22c0-2.3 1.6-4.3 3.8-4.8l16.3-4.1c2.2-0.6 3.8-2.6 3.8-4.8v-16.4c0-3.3-3.1-5.6-6.2-4.8l-23.9 6c-2.2 0.6-3.8 2.6-3.8 4.8zm-139.9-123.4c0-3.2 2.4-4.5 3.2-4.8 0.4-0.1 1.1-0.4 2.1-0.4 1.1 0 2.4 0.3 3.6 1.5l0.3 0.3 26.6 18c1.7 1.9 1.7 4.8 0 6.7l-26.6 18-0.3 0.3c-2.3 2.3-4.9 1.4-5.6 1.1s-3.2-1.6-3.2-4.8v-35.9zm-0.7 50.1c1.9 0.8 3.9 1.2 5.9 1.2 3.7 0 7.4-1.4 10.3-4.1l26.7-18 0.3-0.3c2.9-2.9 4.4-6.7 4.4-10.7 0-4.1-1.6-7.9-4.4-10.7l-0.3-0.3-26.7-18c-4.4-4.1-10.5-5.3-16.2-2.9-5.8 2.4-9.4 7.8-9.4 14v36c0.1 6 3.6 11.4 9.4 13.8zm-63.4 126.3v-16.6h155.2v16.6zm35-298l15.7 15.199c1.9 1.801 4.3 2.801 6.9 2.801h36.5c2.6 0 5.1-1 6.9-2.801l15.9-15.199h38.3v271.4h-155.2v-271.4zm67.5 0l-8.3 8h-36.5l-8.3-8zm52.7-10h-155.2c-5.499 0-9.999 4.5-9.999 10v298c0 5.5 4.5 10 9.999 10h155.2c5.5 0 10-4.5 10-10v-298c0-5.5-4.5-10-10-10" style="fill: rgb(246, 95, 116);"></path>
        </g>
    </g>
</svg>