<?xml version="1.0" encoding="UTF-8"?><svg xmlns="http://www.w3.org/2000/svg" height="207.18pt" version="1.1" viewBox="0 0 57.61 207.18" width="57.61pt">
 <defs>
  <clipPath id="clip1">
   <path d="m38 182h16v25.18h-16z"/>
  </clipPath>
  <clipPath id="clip2">
   <path d="m38 55h19.609v66h-19.609z"/>
  </clipPath>
  <clipPath id="clip3">
   <path d="m41 41h16.609v27h-16.609z"/>
  </clipPath>
 </defs>
 <g id="surface1">
  <g id="change1_3"><path d="m14.336 183.48c0.707 1.9 0.148 3.73 0 4.23-0.426 1.39-1.824 2.65-4.6094 5.12-2.0078 1.78-3.0078 2.67-3.9219 3.39-2.2031 1.71-2.9844 2.03-3.2109 3.01-0.3516 1.49 0.8671 3.35 2.3007 4.32 3.125 2.1 8.5855 0.83 11.742-1.38 0.872-0.61 1.641-1.34 3.075-1.66 1.773-0.4 2.648 0.25 4.477 0 0.699-0.1 2.738-0.39 3.71-1.67 1.668-2.18-1.523-4.98-1.918-11.64-0.187-3.16-1.05-5.52-1.898-5.79-0.629-0.21-1.047 1.15-2.637 1.73-1.375 0.5-1.773-0.25-5.449-1.44-1.465-0.48-1.293-0.41-1.535-0.08-0.246 0.35-0.594 0.62-0.125 1.86" fill="#3a50a5"/></g>
  <g id="change2_1"><path d="m7.8711 13.594c0.8281-3.6526 1.5351-7.6174 4.0819-10.52 3.383-3.8474 8.34-3.6951 12.715-1.6717 4.109-0.49996 8.633-0.91792 11.168 3.0352 1.461 2.2813 2 5.1641 2.367 7.8085 0.262 1.895 1.059 7.641-1.922 12.098-6.211 9.297-24.504 7.996-28.367 0.863-1.0898-2.012-1.539-5.023-0.0429-11.613" fill="#ef4224"/></g>
  <g id="change3_2"><path d="m15.199 38.434c0.098-1.051 2.02-0.829 2.938-2.696 0.527-1.066 0.14-1.636-1.242-7.691-0.594-2.617-1.493-3.762-1.493-3.762s-1.84-0.262-2.015-2.976c-0.09-1.379 0.125-1.981 0.441-2.434 0.57-0.813 1.555-0.855 1.555-0.855s-0.113-4.188 0.445-5.36c0.871-1.828 5.262-1.265 10.332-0.617 2.375 0.305 3.293 0.594 3.735 1.359 0.914 1.582-0.915 3.965 0.078 4.891 0.597 0.559 1.359 0.18 2.05 0.762 0.965 0.804 0.789 2.992-0.464 4.519-0.61 0.735-1.871 0.797-1.871 0.797s-0.165 0.91-0.243 1.649c-0.226 2.132-0.246 5.605 1.145 7.71 1.738 2.649 2.969 0.875 3.422 2.653 0.531 2.078-2.223 5.015-5.051 6.23-6.055 2.606-13.965-2.004-13.762-4.179" fill="#f8afae"/></g>
  <g id="change3_3"><path d="m3.5508 107.46c-0.4688-4.13 0.082-3.31-0.5274-8.108-0.4062-3.211-0.9492-8.938-0.5468-16.18 0.4179-7.637 0.707-5.934 0.4609-10.082-0.3906-6.57-1.9297-8.629-2.2422-15.176-0.03124-0.617-0.04686-1.18-0.05468-1.723 1.4532-0.304 3.0117-0.816 4.4532-0.664 1.6445 0.168 3.4062 1.305 4.6406 2.411 0.1484 0.132 0.3006 0.25 0.4536 0.359 0.707 3.512 0.953 6.23 0.398 15.332-0.285 4.707-0.031 2.027-0.043 5.055-0.023 6.332-0.6524 10.035-0.6524 10.035-0.8672 5.422-1.4883 4.543-2.3008 8.558-0.0664 0.332-0.3281 2.5-0.0976 3.603 0.1719 0.8 0.6055 1.2 1.0703 1.8 1.2891 1.66 2.2775 4.14 1.8395 6.11-0.179 0.8-0.16 1.58-0.8122 1.48-0.6484-0.11-0.3086-1.42-0.7382-2.69-0.0743-0.22-0.3164-0.81-0.8008-0.76-0.625 0.06-0.4414 2.45-0.4219 2.91 0.043 1.1 0.5273 1.22 0.7813 2.29 0.1718 0.73 3.4918 1.76 3.6488 2.5 0.054 0.26-0.231 0.78-0.461 0.98-0.293 0.26-4.3207 0.29-5.1097-0.54-1.7461-1.83-2.5235-3.86-2.9375-7.5" fill="#f8afae"/></g>
  <g id="change4_1"><path d="m4.9414 102.91c-0.5976 3.64-0.6289 6.61-0.5508 8.63 0.3282 8.39 3.0742 13.48 3.8008 21.01 0.0859 0.91 0.1992 2.48 0.6758 4.61 0.6445 2.91 1.4768 4.37 2.2658 9.71 0.887 5.99 1.89 8.79 2.816 16.97 0.457 4.05 0.707 6.32 0.66 9.14-0.093 6.1-1.468 7.65-0.066 9.26 1.371 1.57 4.609 2.27 6.477 1.34 0.445-0.22 1.015-0.63 2.066-0.91 1.48-0.39 1.922 0.03 2.398-0.29 1.328-0.87-1.117-4.76-0.961-10.27 0.082-2.82 0.747-2.68 0.817-6.16 0.047-2.37-0.242-3.45-0.129-6.41 0.082-2.09 0.371-3.53 0.394-4.28 0.129-3.79-0.41-6.78-0.648-13.24-0.426-11.36 1.039-26.13 2.047-26.13 0.633 0.01 0.062 5.91 2.43 15.89 1.101 4.63 2.128 7.18 3.418 13.48 0.425 2.1 0.586 2.95 1.062 4.58 1.633 5.56 2.844 6.33 3.07 10.5 0.266 4.8-1.187 6.31-0.254 11.32 0.594 3.18 1.348 3.45 1.793 7 0.536 4.26-0.324 5.66 0.766 7 1.699 2.1 6.563 2.16 8.961-0.27 1.938-1.96 1.543-4.82 0.766-14.54-0.016-0.19 0.004 0.05-0.465-6.69-0.11-1.62-0.281-4.08-0.559-7.59-0.578-7.31 0.641-21.2 0.641-21.2 1.492-17.03-2.422-17.99 0-25.98 0.457-1.51 1.687-5.66 0.187-9.999-0.398-1.161-1.113-2.149-2.234-3.539-8.434-10.438-41.645 7.058-41.645 7.058" fill="#50c5dc"/></g>
  <g id="change3_4"><path d="m35.066 17.281c-0.347-0.09-0.656-0.125-0.929-0.121 0.429-7.2108-1.145-15.922-14.235-14.031-7.808 1.1249-9.39 7.726-9.117 14.402-0.453-0.144-1.035-0.136-1.785 0.16-2.6211 1.032-0.0352 6.821 2.879 7.414 1.746 5.926 5.832 9.372 11.066 9.106 4.84-0.25 8.203-3.977 9.883-9.203 2.856-0.914 4.942-7.012 2.238-7.727" fill="#f8afae"/></g>
  <g id="change1_4"><path d="m10.367 57.297c-4.1482 7.84 3.59 14.199-1.535 26.109-4.8281 11.203-3.8515 19.964-3.8515 19.964s9.4805 6.02 23.046 6.78c10.056 0.57 17.509-1.46 21.228-3.86 0.168-11.403-1.606-18.778-1.516-24.931 0.27-18.3 3.106-25.382-1.32-29.566-7.152-6.77-30.828-4.359-36.051 5.504" fill="#3a50a5"/></g>
  <g id="change1_5"><path d="m0 61.52s0.41797-6.332 0.98438-8.254c1.0859-3.672 2.1523-5.946 3.4961-7.614 1.6757-2.09 3.6406-3.957 5.8595-5.464 1.863-1.266 4.398-2.86 6.683-3.114 0 0 0.008 1.582 0.508 2.434 1.031 1.742 6.391 0.883 10.754-1.281 2.551-1.262 4.465-2.852 4.465-2.852s1.996 0.02 8.332 2.852c5.637 2.519 6.742 3.48 7.551 4.351 0.586 0.633 1.836 2.012 2.613 4.18 0.414 1.144 0.465 2.445 0.742 5.035 0.231 2.184 0.168 2.684-0.156 3.074-0.914 1.094-2.98 0.235-5.117 0.254-3.598 0.035-4.899 2.543-8.449 4.609-6.25 3.633-8.391-0.558-19.582 2.559-2.922 0.813-5.114-0.019-7.805 0.77-1.4728 0.429-3.0626 0.957-5.9024 0.125-2.836-0.829-4.9766-1.664-4.9766-1.664" fill="#3a50a5"/></g>
  <g clip-path="url(#clip1)" id="change1_2">
   <path d="m40.508 184.16c-1.102 1.02-1.363 2.44-1.442 2.88-0.418 2.29 0.907 3.01 1.153 6.33 0.121 1.66-0.078 3.24-0.192 4.13-0.164 1.28-0.382 2.21-0.386 3.84 0 1.45 0.168 2.05 0.289 2.4 0.062 0.17 0.504 1.41 1.535 2.3 0.672 0.58 1.488 0.94 6.226 1.1 3.696 0.13 4.348-0.04 4.911-0.52 1.152-0.98 1.21-2.64 1.246-3.55 0.14-3.84-2.321-5.32-3.649-10.66-0.242-0.97-0.508-2.07-0.535-3.55-0.035-2.13 0.465-2.53 0.152-3.36-0.882-2.37-6.656-3.82-9.308-1.34" fill="#3a50a5"/>
  </g>
  <g clip-path="url(#clip2)" id="change3_1">
   <path d="m49.395 104.5s0.359 5.43 0.3 7.11c-0.058 1.68-3.562 8.13-4.633 8.58-1.07 0.45-4.742-0.07-5.304-1.25-0.563-1.19 1.648-7.92 1.625-8.53-0.028-0.6-1.363 2.61-1.363 2.61s0.097 2.28-0.86 2.39-1.008-1.1-0.801-2.25 0.489-5.11 1.703-6.68c1.215-1.57 2.368-3.14 2.778-4 0.414-0.87 2.664-11.234 2.547-12.503-0.117-1.27 0.418-8.27 0.472-10.016 0.055-1.75 0.602-6.945 0.602-6.945s-1.203-2.696-1.711-5.696c-0.512-2.996-1.344-9.004-1.344-9.004s2.84-4.007 5.762-3.125c2.918 0.883 7.719 2.219 7.73 2.489 0.352 7.734 1.59 16.609-0.378 24.113-1.832 6.977-6.668 15.422-7.125 22.707" fill="#f8afae"/>
  </g>
  <g clip-path="url(#clip3)" id="change1_1">
   <path d="m47.293 44.383c0.34-0.805-0.934-3.024-0.164-2.61 2.187 1.192 8.691 4.832 9.582 13.391 0.23 2.207 0.66 5.348 0.555 6.895-3.442 1.625-6.348 2.605-8.407 3.207-3.211 0.937-7.851 1.968-7.851 1.968l1.894-12.523 4.391-10.328" fill="#3a50a5"/>
  </g>
  <g id="change2_2"><path d="m27.238 28.512c-2.972-0.711-5.828-0.567-8.656 0.453 0.531 1.336 1.606 1.816 3.098 1.32 1.004-0.328 1.968-0.328 2.976-0.148 1.485 0.269 2.153-0.145 2.582-1.625zm6.953-12.813c0.004 2.028-0.093 5.903-0.222 8.649-0.11 2.254-0.242 3.996-1.34 5.836-0.383 0.644-0.727 1.144-0.961 1.32-2.414 1.801-5.246 2.808-8.266 3.324-1.679 0.289-3.3-0.183-4.793-0.844-1.632-0.722-3.214-1.55-4.785-2.386-1.074-0.571-1.32-1.672-1.719-2.422-1.261-2.387-1.425-4.61-1.546-6.563-0.079-1.265-0.36-3.945-0.047-6.011 1.261 3.261 1.976 8.23 2.226 9.089 0.539 1.86 3.508 3.497 5.184 2.168 0.508-0.402 1.289-0.55 1.973-0.73 1.015-0.27 2.011-0.25 2.886 0.476 1.41-1.265 2.895-0.921 4.336-0.148 0.992 0.531 2.278 0.223 3.231-0.277 1.484-0.782 1.652-2.172 2.16-3.61 0.082-0.226 0.16-0.457 0.242-0.683 0.07-0.004 1.375-7.184 1.441-7.188" fill="#ef4224"/></g>
  <g id="change2_3"><path d="m9.7891 11.574c0.6909 0.766 3.7189 0.723 7.9689-0.957 10.394-4.1131 14.152-5.9334 14.109-7.2967-0.047-1.4961-5.871-2.1367-10.847-1.6289-1.75 0.1758-4.45 0.4883-7.004 2.3984-3.121 2.3321-5.184 6.4222-4.2269 7.4842" fill="#ef4224"/></g>
 </g>
</svg>