<svg xmlns="http://www.w3.org/2000/svg" xmlns:xlink="http://www.w3.org/1999/xlink" version="1.1" x="0px" y="0px" viewBox="0 0 400.236 328.675" enable-background="new 0 0 400.236 328.675" xml:space="preserve" style="fill: rgb(0, 0, 0);">
<g id="__id125_sdr4k5c63o">
	<g id="__id126_sdr4k5c63o">
		<path d="M246.833,304.82c-30.922,0-61.848,0-92.77,0c3.977,3.976,7.952,7.952,11.928,11.928    c0-83.051,0-166.105,0-249.159c-3.976,3.977-7.951,7.952-11.928,11.928c30.922,0,61.848,0,92.77,0    c-3.976-3.976-7.953-7.951-11.928-11.928c0,83.054,0,166.108,0,249.159c0,15.382,23.854,15.382,23.854,0    c0-83.051,0-166.105,0-249.159c0-6.503-5.428-11.927-11.927-11.927c-30.922,0-61.848,0-92.77,0    c-6.503,0-11.927,5.424-11.927,11.927c0,83.054,0,166.108,0,249.159c0,6.499,5.424,11.927,11.927,11.927    c30.922,0,61.848,0,92.77,0C262.216,328.675,262.216,304.82,246.833,304.82z" style="fill: rgb(250, 87, 193);"></path>
		<path d="M388.31,304.82c-30.922,0-61.852,0-92.773,0c3.978,3.976,7.952,7.952,11.928,11.928    c0-63.832,0-127.67,0-191.505c-3.976,3.976-7.95,7.952-11.928,11.927c30.922,0,61.852,0,92.773,0    c-3.976-3.975-7.952-7.951-11.928-11.927c0,63.835,0,127.673,0,191.505c0,15.382,23.854,15.382,23.854,0    c0-63.832,0-127.67,0-191.505c0-6.503-5.428-11.927-11.927-11.927c-30.922,0-61.852,0-92.773,0c-6.5,0-11.928,5.424-11.928,11.927    c0,63.835,0,127.673,0,191.505c0,6.499,5.428,11.927,11.928,11.927c30.922,0,61.852,0,92.773,0    C403.691,328.675,403.691,304.82,388.31,304.82z" style="fill: rgb(250, 87, 193);"></path>
		<path d="M104.695,304.82c-30.922,0-61.846,0-92.768,0c3.977,3.976,7.952,7.952,11.928,11.928    c0-101.61,0-203.216,0-304.821c-3.976,3.977-7.951,7.952-11.928,11.928c30.922,0,61.846,0,92.768,0    c-3.975-3.976-7.952-7.951-11.927-11.928c0,101.605,0,203.21,0,304.821c0,15.382,23.855,15.382,23.855,0    c0-101.61,0-203.216,0-304.821C116.623,5.424,111.199,0,104.695,0C73.773,0,42.849,0,11.927,0C5.424,0,0,5.424,0,11.927    c0,101.605,0,203.21,0,304.821c0,6.499,5.424,11.927,11.927,11.927c30.922,0,61.846,0,92.768,0    C120.078,328.675,120.078,304.82,104.695,304.82z" style="fill: rgb(250, 87, 193);"></path>
	</g>
</g>
</svg>