<?xml version="1.0" encoding="UTF-8"?><svg xmlns="http://www.w3.org/2000/svg" viewBox="0 0 36 36">
 <g id="change1_1"><path d="m1 17l8-7 16 1 1 16-7 8s0.001-5.999-6-12-12-6-12-6z" fill="#A0041E"/></g>
 <g id="change2_1"><path d="m0.973 35s-0.036-7.979 2.985-11 11.042-2.813 11.042-2.813-0.001 7.813-3.001 10.813c-3 3-11.026 3-11.026 3z" fill="#FFAC33"/></g>
 <g id="change3_1"><circle cx="8.999" cy="27" fill="#FFCC4D" r="4"/></g>
 <g id="change4_1"><path d="m35.999 0s-10 0-22 10c-6 5-6 14-4 16s11 2 16-4c10-12 10-22 10-22z" fill="#55ACEE"/></g>
 <g id="change5_1"><path d="m26.999 5c-1.623 0-3.013 0.971-3.641 2.36 0.502-0.227 1.055-0.36 1.641-0.36 2.209 0 4 1.791 4 4 0 0.586-0.133 1.139-0.359 1.64 1.389-0.627 2.359-2.017 2.359-3.64 0-2.209-1.791-4-4-4z" fill="inherit"/></g>
 <g id="change1_2"><path d="m8 28s0-4 1-5 13.001-10.999 14-10-9.001 13-10.001 14-4.999 1-4.999 1z" fill="#A0041E"/></g>
</svg>